<svg width="279" height="185" viewBox="0 0 279 185" fill="none" xmlns="http://www.w3.org/2000/svg">
<path d="M246.043 50.5295V51.7342L239.059 67.395H236.8L243.773 52.2902H234.645V50.5295H246.043ZM250.619 65.5996H250.839C252.075 65.5996 253.078 65.4258 253.851 65.0783C254.623 64.7308 255.218 64.2636 255.635 63.6767C256.052 63.0898 256.337 62.4296 256.492 61.696C256.646 60.9546 256.723 60.194 256.723 59.414V56.8309C256.723 56.0664 256.635 55.3869 256.457 54.7922C256.287 54.1976 256.048 53.6995 255.739 53.298C255.438 52.8964 255.094 52.5914 254.708 52.3829C254.322 52.1744 253.912 52.0701 253.48 52.0701C252.986 52.0701 252.542 52.1705 252.148 52.3713C251.762 52.5644 251.434 52.8385 251.163 53.1937C250.901 53.549 250.7 53.966 250.561 54.4447C250.422 54.9235 250.353 55.4448 250.353 56.0085C250.353 56.5105 250.414 56.997 250.538 57.468C250.661 57.9391 250.851 58.3638 251.105 58.7422C251.36 59.1206 251.677 59.4218 252.055 59.6457C252.441 59.8619 252.893 59.97 253.411 59.97C253.889 59.97 254.337 59.8774 254.754 59.692C255.179 59.499 255.553 59.2403 255.878 58.916C256.21 58.5839 256.472 58.2094 256.665 57.7924C256.866 57.3754 256.982 56.939 257.013 56.4834H258.032C258.032 57.1244 257.905 57.7576 257.65 58.3831C257.403 59.0009 257.055 59.5646 256.608 60.0743C256.16 60.584 255.635 60.9932 255.032 61.3021C254.43 61.6033 253.773 61.7539 253.063 61.7539C252.229 61.7539 251.507 61.5917 250.897 61.2674C250.287 60.9431 249.785 60.5106 249.391 59.97C249.005 59.4295 248.715 58.8271 248.522 58.163C248.337 57.4912 248.244 56.8116 248.244 56.1243C248.244 55.3212 248.356 54.5683 248.58 53.8656C248.804 53.1628 249.136 52.5451 249.576 52.0122C250.017 51.4717 250.561 51.0508 251.21 50.7496C251.866 50.4485 252.623 50.2979 253.48 50.2979C254.445 50.2979 255.268 50.4909 255.947 50.8771C256.627 51.2632 257.179 51.7806 257.604 52.4292C258.036 53.0779 258.353 53.8077 258.554 54.6185C258.754 55.4293 258.855 56.2633 258.855 57.1205V57.8966C258.855 58.7692 258.797 59.6573 258.681 60.5608C258.573 61.4566 258.361 62.3138 258.044 63.1323C257.735 63.9509 257.283 64.6845 256.689 65.3332C256.094 65.9741 255.318 66.4838 254.36 66.8622C253.411 67.2329 252.237 67.4182 250.839 67.4182H250.619V65.5996ZM261.646 54.6648V53.7729C261.646 53.132 261.785 52.5489 262.063 52.0238C262.341 51.4987 262.739 51.0778 263.256 50.7612C263.774 50.4446 264.388 50.2863 265.098 50.2863C265.824 50.2863 266.442 50.4446 266.952 50.7612C267.469 51.0778 267.867 51.4987 268.145 52.0238C268.423 52.5489 268.562 53.132 268.562 53.7729V54.6648C268.562 55.2903 268.423 55.8656 268.145 56.3908C267.874 56.9159 267.481 57.3367 266.963 57.6534C266.453 57.97 265.84 58.1283 265.121 58.1283C264.403 58.1283 263.782 57.97 263.256 57.6534C262.739 57.3367 262.341 56.9159 262.063 56.3908C261.785 55.8656 261.646 55.2903 261.646 54.6648ZM263.256 53.7729V54.6648C263.256 55.0201 263.322 55.356 263.453 55.6726C263.592 55.9892 263.801 56.2479 264.079 56.4487C264.357 56.6417 264.704 56.7383 265.121 56.7383C265.538 56.7383 265.882 56.6417 266.152 56.4487C266.423 56.2479 266.623 55.9892 266.755 55.6726C266.886 55.356 266.952 55.0201 266.952 54.6648V53.7729C266.952 53.41 266.882 53.0702 266.743 52.7536C266.612 52.4292 266.407 52.1705 266.129 51.9775C265.859 51.7767 265.515 51.6763 265.098 51.6763C264.689 51.6763 264.345 51.7767 264.067 51.9775C263.797 52.1705 263.592 52.4292 263.453 52.7536C263.322 53.0702 263.256 53.41 263.256 53.7729ZM269.859 64.1632V63.2597C269.859 62.6265 269.998 62.0473 270.276 61.5222C270.554 60.9971 270.952 60.5762 271.469 60.2596C271.986 59.943 272.6 59.7847 273.311 59.7847C274.037 59.7847 274.655 59.943 275.164 60.2596C275.682 60.5762 276.079 60.9971 276.357 61.5222C276.635 62.0473 276.774 62.6265 276.774 63.2597V64.1632C276.774 64.7965 276.635 65.3756 276.357 65.9008C276.087 66.4259 275.693 66.8467 275.176 67.1634C274.666 67.48 274.052 67.6383 273.334 67.6383C272.616 67.6383 271.998 67.48 271.481 67.1634C270.963 66.8467 270.562 66.4259 270.276 65.9008C269.998 65.3756 269.859 64.7965 269.859 64.1632ZM271.469 63.2597V64.1632C271.469 64.5185 271.535 64.8582 271.666 65.1826C271.805 65.4992 272.014 65.7579 272.292 65.9587C272.57 66.1517 272.917 66.2483 273.334 66.2483C273.751 66.2483 274.095 66.1517 274.365 65.9587C274.643 65.7579 274.848 65.4992 274.979 65.1826C275.11 64.866 275.176 64.5262 275.176 64.1632V63.2597C275.176 62.8968 275.106 62.557 274.967 62.2404C274.836 61.9238 274.631 61.6689 274.353 61.4759C274.083 61.2751 273.736 61.1747 273.311 61.1747C272.902 61.1747 272.558 61.2751 272.28 61.4759C272.01 61.6689 271.805 61.9238 271.666 62.2404C271.535 62.557 271.469 62.8968 271.469 63.2597ZM273.844 52.9273L265.608 66.1093L264.403 65.3448L272.639 52.1628L273.844 52.9273Z" fill="#0088F0"/>
<path d="M236.91 82.8759V82.7543C236.91 82.3418 236.97 81.9593 237.09 81.6068C237.21 81.2507 237.382 80.9423 237.608 80.6814C237.834 80.417 238.107 80.2125 238.428 80.068C238.749 79.9199 239.108 79.8459 239.507 79.8459C239.908 79.8459 240.27 79.9199 240.591 80.068C240.915 80.2125 241.19 80.417 241.416 80.6814C241.645 80.9423 241.819 81.2507 241.939 81.6068C242.059 81.9593 242.119 82.3418 242.119 82.7543V82.8759C242.119 83.2884 242.059 83.6709 241.939 84.0235C241.819 84.376 241.645 84.6845 241.416 84.9489C241.19 85.2098 240.917 85.4142 240.596 85.5623C240.279 85.7068 239.919 85.7791 239.517 85.7791C239.115 85.7791 238.754 85.7068 238.433 85.5623C238.112 85.4142 237.837 85.2098 237.608 84.9489C237.382 84.6845 237.21 84.376 237.09 84.0235C236.97 83.6709 236.91 83.2884 236.91 82.8759ZM237.888 82.7543V82.8759C237.888 83.1615 237.922 83.4312 237.989 83.685C238.056 83.9353 238.156 84.1574 238.29 84.3513C238.428 84.5452 238.599 84.6986 238.803 84.8114C239.008 84.9207 239.246 84.9753 239.517 84.9753C239.785 84.9753 240.019 84.9207 240.22 84.8114C240.425 84.6986 240.594 84.5452 240.728 84.3513C240.862 84.1574 240.963 83.9353 241.03 83.685C241.1 83.4312 241.135 83.1615 241.135 82.8759V82.7543C241.135 82.4723 241.1 82.2061 241.03 81.9558C240.963 81.702 240.86 81.4781 240.723 81.2842C240.589 81.0868 240.42 80.9317 240.215 80.8189C240.014 80.7061 239.778 80.6497 239.507 80.6497C239.239 80.6497 239.002 80.7061 238.798 80.8189C238.597 80.9317 238.428 81.0868 238.29 81.2842C238.156 81.4781 238.056 81.702 237.989 81.9558C237.922 82.2061 237.888 82.4723 237.888 82.7543ZM244.324 81.0516V87.8732H243.34V79.9516H244.239L244.324 81.0516ZM248.179 82.7649V82.8759C248.179 83.2919 248.13 83.678 248.031 84.034C247.932 84.3866 247.788 84.6933 247.597 84.9542C247.41 85.215 247.18 85.4177 246.905 85.5623C246.63 85.7068 246.314 85.7791 245.958 85.7791C245.595 85.7791 245.274 85.7192 244.996 85.5993C244.717 85.4794 244.481 85.3049 244.287 85.0758C244.093 84.8466 243.938 84.5717 243.822 84.2508C243.709 83.93 243.631 83.5687 243.589 83.1668V82.5745C243.631 82.1515 243.711 81.7725 243.827 81.4376C243.943 81.1027 244.097 80.8171 244.287 80.5809C244.481 80.3412 244.715 80.1596 244.99 80.0362C245.265 79.9093 245.583 79.8459 245.942 79.8459C246.302 79.8459 246.621 79.9164 246.899 80.0574C247.178 80.1949 247.412 80.3923 247.603 80.6497C247.793 80.907 247.936 81.2155 248.031 81.5751C248.13 81.9311 248.179 82.3277 248.179 82.7649ZM247.195 82.8759V82.7649C247.195 82.4793 247.165 82.2114 247.106 81.9611C247.046 81.7073 246.952 81.4852 246.825 81.2948C246.702 81.1009 246.543 80.9493 246.349 80.84C246.155 80.7272 245.925 80.6708 245.657 80.6708C245.41 80.6708 245.195 80.7131 245.011 80.7977C244.832 80.8823 244.678 80.9969 244.551 81.1414C244.424 81.2825 244.32 81.4446 244.239 81.628C244.162 81.8077 244.104 81.9946 244.065 82.1885V83.5581C244.135 83.8049 244.234 84.0376 244.361 84.2561C244.488 84.4712 244.657 84.6457 244.869 84.7797C245.08 84.9101 245.346 84.9753 245.667 84.9753C245.932 84.9753 246.159 84.9207 246.349 84.8114C246.543 84.6986 246.702 84.5452 246.825 84.3513C246.952 84.1574 247.046 83.9353 247.106 83.685C247.165 83.4312 247.195 83.1615 247.195 82.8759ZM251.822 79.9516V80.7025H248.729V79.9516H251.822ZM249.776 78.5609H250.754V84.2561C250.754 84.45 250.784 84.5963 250.844 84.695C250.904 84.7938 250.982 84.859 251.077 84.8907C251.172 84.9224 251.274 84.9383 251.384 84.9383C251.465 84.9383 251.549 84.9312 251.637 84.9171C251.729 84.8995 251.798 84.8854 251.844 84.8748L251.849 85.6733C251.771 85.698 251.669 85.7209 251.542 85.7421C251.419 85.7668 251.269 85.7791 251.093 85.7791C250.853 85.7791 250.633 85.7315 250.432 85.6363C250.231 85.5411 250.07 85.3825 249.951 85.1604C249.834 84.9348 249.776 84.6316 249.776 84.2508V78.5609ZM254.033 79.9516V85.6733H253.049V79.9516H254.033ZM252.975 78.4339C252.975 78.2753 253.023 78.1413 253.118 78.0321C253.217 77.9228 253.361 77.8681 253.552 77.8681C253.739 77.8681 253.881 77.9228 253.98 78.0321C254.082 78.1413 254.133 78.2753 254.133 78.4339C254.133 78.5855 254.082 78.716 253.98 78.8253C253.881 78.931 253.739 78.9839 253.552 78.9839C253.361 78.9839 253.217 78.931 253.118 78.8253C253.023 78.716 252.975 78.5855 252.975 78.4339ZM255.344 82.8759V82.7543C255.344 82.3418 255.404 81.9593 255.524 81.6068C255.644 81.2507 255.817 80.9423 256.042 80.6814C256.268 80.417 256.541 80.2125 256.862 80.068C257.183 79.9199 257.542 79.8459 257.941 79.8459C258.343 79.8459 258.704 79.9199 259.025 80.068C259.349 80.2125 259.624 80.417 259.85 80.6814C260.079 80.9423 260.253 81.2507 260.373 81.6068C260.493 81.9593 260.553 82.3418 260.553 82.7543V82.8759C260.553 83.2884 260.493 83.6709 260.373 84.0235C260.253 84.376 260.079 84.6845 259.85 84.9489C259.624 85.2098 259.351 85.4142 259.03 85.5623C258.713 85.7068 258.353 85.7791 257.951 85.7791C257.549 85.7791 257.188 85.7068 256.867 85.5623C256.547 85.4142 256.272 85.2098 256.042 84.9489C255.817 84.6845 255.644 84.376 255.524 84.0235C255.404 83.6709 255.344 83.2884 255.344 82.8759ZM256.323 82.7543V82.8759C256.323 83.1615 256.356 83.4312 256.423 83.685C256.49 83.9353 256.591 84.1574 256.725 84.3513C256.862 84.5452 257.033 84.6986 257.237 84.8114C257.442 84.9207 257.68 84.9753 257.951 84.9753C258.219 84.9753 258.454 84.9207 258.655 84.8114C258.859 84.6986 259.028 84.5452 259.162 84.3513C259.296 84.1574 259.397 83.9353 259.464 83.685C259.534 83.4312 259.57 83.1615 259.57 82.8759V82.7543C259.57 82.4723 259.534 82.2061 259.464 81.9558C259.397 81.702 259.295 81.4781 259.157 81.2842C259.023 81.0868 258.854 80.9317 258.649 80.8189C258.448 80.7061 258.212 80.6497 257.941 80.6497C257.673 80.6497 257.437 80.7061 257.232 80.8189C257.031 80.9317 256.862 81.0868 256.725 81.2842C256.591 81.4781 256.49 81.702 256.423 81.9558C256.356 82.2061 256.323 82.4723 256.323 82.7543ZM262.758 81.1732V85.6733H261.78V79.9516H262.705L262.758 81.1732ZM262.526 82.5957L262.118 82.5798C262.122 82.1885 262.18 81.8271 262.293 81.4958C262.406 81.1608 262.564 80.87 262.769 80.6232C262.973 80.3764 263.217 80.1861 263.499 80.0521C263.784 79.9146 264.1 79.8459 264.445 79.8459C264.727 79.8459 264.981 79.8846 265.207 79.9622C265.432 80.0362 265.624 80.1561 265.783 80.3218C265.945 80.4875 266.069 80.7025 266.153 80.9669C266.238 81.2278 266.28 81.5469 266.28 81.9241V85.6733H265.297V81.9135C265.297 81.6139 265.252 81.3741 265.164 81.1943C265.076 81.011 264.948 80.8788 264.778 80.7977C264.609 80.7131 264.401 80.6708 264.154 80.6708C263.911 80.6708 263.689 80.7219 263.488 80.8242C263.291 80.9264 263.12 81.0674 262.975 81.2472C262.834 81.427 262.723 81.6332 262.642 81.8659C262.564 82.0951 262.526 82.3383 262.526 82.5957ZM273.562 77.9316V85.6733H272.584V79.1531L270.611 79.8723V78.9892L273.408 77.9316H273.562Z" fill="#8794BA"/>
<path d="M245.777 130.218C245.777 131.245 245.538 132.117 245.059 132.836C244.588 133.546 243.947 134.087 243.136 134.457C242.333 134.828 241.426 135.013 240.414 135.013C239.402 135.013 238.491 134.828 237.68 134.457C236.869 134.087 236.228 133.546 235.757 132.836C235.286 132.117 235.051 131.245 235.051 130.218C235.051 129.546 235.178 128.932 235.433 128.376C235.696 127.812 236.062 127.322 236.533 126.905C237.012 126.488 237.576 126.167 238.225 125.943C238.881 125.712 239.603 125.596 240.391 125.596C241.426 125.596 242.348 125.797 243.159 126.198C243.97 126.592 244.607 127.137 245.07 127.832C245.542 128.527 245.777 129.322 245.777 130.218ZM243.623 130.171C243.623 129.546 243.487 128.994 243.217 128.515C242.947 128.028 242.568 127.65 242.082 127.38C241.595 127.11 241.032 126.974 240.391 126.974C239.734 126.974 239.167 127.11 238.688 127.38C238.217 127.65 237.85 128.028 237.588 128.515C237.325 128.994 237.194 129.546 237.194 130.171C237.194 130.82 237.321 131.376 237.576 131.839C237.839 132.295 238.209 132.646 238.688 132.894C239.175 133.133 239.75 133.253 240.414 133.253C241.078 133.253 241.65 133.133 242.128 132.894C242.607 132.646 242.974 132.295 243.229 131.839C243.491 131.376 243.623 130.82 243.623 130.171ZM245.383 122.306C245.383 123.125 245.167 123.862 244.735 124.519C244.302 125.175 243.711 125.692 242.962 126.071C242.213 126.449 241.364 126.638 240.414 126.638C239.449 126.638 238.588 126.449 237.831 126.071C237.082 125.692 236.495 125.175 236.07 124.519C235.645 123.862 235.433 123.125 235.433 122.306C235.433 121.326 235.645 120.492 236.07 119.804C236.503 119.117 237.093 118.592 237.842 118.229C238.591 117.866 239.445 117.684 240.402 117.684C241.368 117.684 242.225 117.866 242.974 118.229C243.723 118.592 244.31 119.117 244.735 119.804C245.167 120.492 245.383 121.326 245.383 122.306ZM243.24 122.341C243.24 121.777 243.121 121.279 242.881 120.847C242.642 120.414 242.31 120.075 241.885 119.827C241.46 119.573 240.966 119.445 240.402 119.445C239.839 119.445 239.344 119.565 238.92 119.804C238.503 120.036 238.174 120.368 237.935 120.8C237.703 121.233 237.588 121.746 237.588 122.341C237.588 122.92 237.703 123.426 237.935 123.858C238.174 124.291 238.507 124.627 238.931 124.866C239.356 125.106 239.85 125.225 240.414 125.225C240.978 125.225 241.468 125.106 241.885 124.866C242.31 124.627 242.642 124.291 242.881 123.858C243.121 123.426 243.24 122.92 243.24 122.341ZM259.388 117.916V119.121L252.403 134.782H250.144L257.117 119.677H247.989V117.916H259.388ZM261.646 122.051V121.16C261.646 120.519 261.785 119.936 262.063 119.41C262.341 118.885 262.739 118.464 263.256 118.148C263.774 117.831 264.388 117.673 265.098 117.673C265.824 117.673 266.442 117.831 266.952 118.148C267.469 118.464 267.867 118.885 268.145 119.41C268.423 119.936 268.562 120.519 268.562 121.16V122.051C268.562 122.677 268.423 123.252 268.145 123.777C267.874 124.302 267.481 124.723 266.963 125.04C266.453 125.357 265.84 125.515 265.121 125.515C264.403 125.515 263.782 125.357 263.256 125.04C262.739 124.723 262.341 124.302 262.063 123.777C261.785 123.252 261.646 122.677 261.646 122.051ZM263.256 121.16V122.051C263.256 122.407 263.322 122.743 263.453 123.059C263.592 123.376 263.801 123.634 264.079 123.835C264.357 124.028 264.704 124.125 265.121 124.125C265.538 124.125 265.882 124.028 266.152 123.835C266.423 123.634 266.623 123.376 266.755 123.059C266.886 122.743 266.952 122.407 266.952 122.051V121.16C266.952 120.797 266.882 120.457 266.743 120.14C266.612 119.816 266.407 119.557 266.129 119.364C265.859 119.163 265.515 119.063 265.098 119.063C264.689 119.063 264.345 119.163 264.067 119.364C263.797 119.557 263.592 119.816 263.453 120.14C263.322 120.457 263.256 120.797 263.256 121.16ZM269.859 131.55V130.646C269.859 130.013 269.998 129.434 270.276 128.909C270.554 128.384 270.952 127.963 271.469 127.646C271.986 127.33 272.6 127.171 273.311 127.171C274.037 127.171 274.655 127.33 275.164 127.646C275.682 127.963 276.079 128.384 276.357 128.909C276.635 129.434 276.774 130.013 276.774 130.646V131.55C276.774 132.183 276.635 132.762 276.357 133.287C276.087 133.812 275.693 134.233 275.176 134.55C274.666 134.867 274.052 135.025 273.334 135.025C272.616 135.025 271.998 134.867 271.481 134.55C270.963 134.233 270.562 133.812 270.276 133.287C269.998 132.762 269.859 132.183 269.859 131.55ZM271.469 130.646V131.55C271.469 131.905 271.535 132.245 271.666 132.569C271.805 132.886 272.014 133.144 272.292 133.345C272.57 133.538 272.917 133.635 273.334 133.635C273.751 133.635 274.095 133.538 274.365 133.345C274.643 133.144 274.848 132.886 274.979 132.569C275.11 132.253 275.176 131.913 275.176 131.55V130.646C275.176 130.283 275.106 129.944 274.967 129.627C274.836 129.31 274.631 129.056 274.353 128.862C274.083 128.662 273.736 128.561 273.311 128.561C272.902 128.561 272.558 128.662 272.28 128.862C272.01 129.056 271.805 129.31 271.666 129.627C271.535 129.944 271.469 130.283 271.469 130.646ZM273.844 120.314L265.608 133.496L264.403 132.731L272.639 119.549L273.844 120.314Z" fill="#EF2A82"/>
<path d="M236.91 150.263V150.141C236.91 149.728 236.97 149.346 237.09 148.993C237.21 148.637 237.382 148.329 237.608 148.068C237.834 147.804 238.107 147.599 238.428 147.455C238.749 147.306 239.108 147.232 239.507 147.232C239.908 147.232 240.27 147.306 240.591 147.455C240.915 147.599 241.19 147.804 241.416 148.068C241.645 148.329 241.819 148.637 241.939 148.993C242.059 149.346 242.119 149.728 242.119 150.141V150.263C242.119 150.675 242.059 151.058 241.939 151.41C241.819 151.763 241.645 152.071 241.416 152.335C241.19 152.596 240.917 152.801 240.596 152.949C240.279 153.093 239.919 153.166 239.517 153.166C239.115 153.166 238.754 153.093 238.433 152.949C238.112 152.801 237.837 152.596 237.608 152.335C237.382 152.071 237.21 151.763 237.09 151.41C236.97 151.058 236.91 150.675 236.91 150.263ZM237.888 150.141V150.263C237.888 150.548 237.922 150.818 237.989 151.072C238.056 151.322 238.156 151.544 238.29 151.738C238.428 151.932 238.599 152.085 238.803 152.198C239.008 152.307 239.246 152.362 239.517 152.362C239.785 152.362 240.019 152.307 240.22 152.198C240.425 152.085 240.594 151.932 240.728 151.738C240.862 151.544 240.963 151.322 241.03 151.072C241.1 150.818 241.135 150.548 241.135 150.263V150.141C241.135 149.859 241.1 149.593 241.03 149.342C240.963 149.089 240.86 148.865 240.723 148.671C240.589 148.473 240.42 148.318 240.215 148.205C240.014 148.093 239.778 148.036 239.507 148.036C239.239 148.036 239.002 148.093 238.798 148.205C238.597 148.318 238.428 148.473 238.29 148.671C238.156 148.865 238.056 149.089 237.989 149.342C237.922 149.593 237.888 149.859 237.888 150.141ZM244.324 148.438V155.26H243.34V147.338H244.239L244.324 148.438ZM248.179 150.151V150.263C248.179 150.679 248.13 151.065 248.031 151.421C247.932 151.773 247.788 152.08 247.597 152.341C247.41 152.602 247.18 152.804 246.905 152.949C246.63 153.093 246.314 153.166 245.958 153.166C245.595 153.166 245.274 153.106 244.996 152.986C244.717 152.866 244.481 152.692 244.287 152.462C244.093 152.233 243.938 151.958 243.822 151.637C243.709 151.317 243.631 150.955 243.589 150.553V149.961C243.631 149.538 243.711 149.159 243.827 148.824C243.943 148.489 244.097 148.204 244.287 147.968C244.481 147.728 244.715 147.546 244.99 147.423C245.265 147.296 245.583 147.232 245.942 147.232C246.302 147.232 246.621 147.303 246.899 147.444C247.178 147.581 247.412 147.779 247.603 148.036C247.793 148.294 247.936 148.602 248.031 148.962C248.13 149.318 248.179 149.714 248.179 150.151ZM247.195 150.263V150.151C247.195 149.866 247.165 149.598 247.106 149.348C247.046 149.094 246.952 148.872 246.825 148.681C246.702 148.488 246.543 148.336 246.349 148.227C246.155 148.114 245.925 148.057 245.657 148.057C245.41 148.057 245.195 148.1 245.011 148.184C244.832 148.269 244.678 148.384 244.551 148.528C244.424 148.669 244.32 148.831 244.239 149.015C244.162 149.194 244.104 149.381 244.065 149.575V150.945C244.135 151.191 244.234 151.424 244.361 151.643C244.488 151.858 244.657 152.032 244.869 152.166C245.08 152.297 245.346 152.362 245.667 152.362C245.932 152.362 246.159 152.307 246.349 152.198C246.543 152.085 246.702 151.932 246.825 151.738C246.952 151.544 247.046 151.322 247.106 151.072C247.165 150.818 247.195 150.548 247.195 150.263ZM251.822 147.338V148.089H248.729V147.338H251.822ZM249.776 145.947H250.754V151.643C250.754 151.837 250.784 151.983 250.844 152.082C250.904 152.18 250.982 152.246 251.077 152.277C251.172 152.309 251.274 152.325 251.384 152.325C251.465 152.325 251.549 152.318 251.637 152.304C251.729 152.286 251.798 152.272 251.844 152.261L251.849 153.06C251.771 153.085 251.669 153.108 251.542 153.129C251.419 153.153 251.269 153.166 251.093 153.166C250.853 153.166 250.633 153.118 250.432 153.023C250.231 152.928 250.07 152.769 249.951 152.547C249.834 152.321 249.776 152.018 249.776 151.637V145.947ZM254.033 147.338V153.06H253.049V147.338H254.033ZM252.975 145.821C252.975 145.662 253.023 145.528 253.118 145.419C253.217 145.309 253.361 145.255 253.552 145.255C253.739 145.255 253.881 145.309 253.98 145.419C254.082 145.528 254.133 145.662 254.133 145.821C254.133 145.972 254.082 146.103 253.98 146.212C253.881 146.318 253.739 146.371 253.552 146.371C253.361 146.371 253.217 146.318 253.118 146.212C253.023 146.103 252.975 145.972 252.975 145.821ZM255.344 150.263V150.141C255.344 149.728 255.404 149.346 255.524 148.993C255.644 148.637 255.817 148.329 256.042 148.068C256.268 147.804 256.541 147.599 256.862 147.455C257.183 147.306 257.542 147.232 257.941 147.232C258.343 147.232 258.704 147.306 259.025 147.455C259.349 147.599 259.624 147.804 259.85 148.068C260.079 148.329 260.253 148.637 260.373 148.993C260.493 149.346 260.553 149.728 260.553 150.141V150.263C260.553 150.675 260.493 151.058 260.373 151.41C260.253 151.763 260.079 152.071 259.85 152.335C259.624 152.596 259.351 152.801 259.03 152.949C258.713 153.093 258.353 153.166 257.951 153.166C257.549 153.166 257.188 153.093 256.867 152.949C256.547 152.801 256.272 152.596 256.042 152.335C255.817 152.071 255.644 151.763 255.524 151.41C255.404 151.058 255.344 150.675 255.344 150.263ZM256.323 150.141V150.263C256.323 150.548 256.356 150.818 256.423 151.072C256.49 151.322 256.591 151.544 256.725 151.738C256.862 151.932 257.033 152.085 257.237 152.198C257.442 152.307 257.68 152.362 257.951 152.362C258.219 152.362 258.454 152.307 258.655 152.198C258.859 152.085 259.028 151.932 259.162 151.738C259.296 151.544 259.397 151.322 259.464 151.072C259.534 150.818 259.57 150.548 259.57 150.263V150.141C259.57 149.859 259.534 149.593 259.464 149.342C259.397 149.089 259.295 148.865 259.157 148.671C259.023 148.473 258.854 148.318 258.649 148.205C258.448 148.093 258.212 148.036 257.941 148.036C257.673 148.036 257.437 148.093 257.232 148.205C257.031 148.318 256.862 148.473 256.725 148.671C256.591 148.865 256.49 149.089 256.423 149.342C256.356 149.593 256.323 149.859 256.323 150.141ZM262.758 148.56V153.06H261.78V147.338H262.705L262.758 148.56ZM262.526 149.982L262.118 149.966C262.122 149.575 262.18 149.214 262.293 148.882C262.406 148.547 262.564 148.257 262.769 148.01C262.973 147.763 263.217 147.573 263.499 147.439C263.784 147.301 264.1 147.232 264.445 147.232C264.727 147.232 264.981 147.271 265.207 147.349C265.432 147.423 265.624 147.543 265.783 147.708C265.945 147.874 266.069 148.089 266.153 148.354C266.238 148.614 266.28 148.933 266.28 149.311V153.06H265.297V149.3C265.297 149 265.252 148.761 265.164 148.581C265.076 148.398 264.948 148.265 264.778 148.184C264.609 148.1 264.401 148.057 264.154 148.057C263.911 148.057 263.689 148.109 263.488 148.211C263.291 148.313 263.12 148.454 262.975 148.634C262.834 148.814 262.723 149.02 262.642 149.253C262.564 149.482 262.526 149.725 262.526 149.982ZM275.391 152.256V153.06H270.352V152.357L272.874 149.549C273.185 149.203 273.424 148.911 273.594 148.671C273.766 148.428 273.886 148.211 273.953 148.02C274.024 147.826 274.059 147.629 274.059 147.428C274.059 147.174 274.006 146.945 273.9 146.741C273.798 146.533 273.646 146.367 273.445 146.244C273.245 146.12 273.001 146.059 272.716 146.059C272.374 146.059 272.088 146.125 271.859 146.259C271.633 146.39 271.464 146.573 271.351 146.809C271.239 147.046 271.182 147.317 271.182 147.624H270.204C270.204 147.19 270.299 146.794 270.489 146.434C270.68 146.074 270.962 145.789 271.336 145.577C271.709 145.362 272.169 145.255 272.716 145.255C273.202 145.255 273.618 145.341 273.964 145.514C274.309 145.683 274.574 145.923 274.757 146.233C274.944 146.54 275.037 146.899 275.037 147.312C275.037 147.537 274.998 147.767 274.921 147.999C274.847 148.228 274.743 148.458 274.609 148.687C274.478 148.916 274.325 149.141 274.149 149.364C273.976 149.586 273.791 149.804 273.594 150.019L271.531 152.256H275.391Z" fill="#8794BA"/>
<path d="M105.093 51.5368C105.041 50.1602 106.116 48.9964 107.493 49.0063C119.491 49.0929 131.166 53.0569 140.756 60.3416C151.009 68.1303 158.244 79.2331 161.229 91.7583C164.213 104.283 162.763 117.456 157.124 129.032C151.485 140.607 142.007 149.869 130.305 155.24C118.603 160.611 105.4 161.758 92.9471 158.486C80.494 155.214 69.5606 147.725 62.0099 137.296C54.4593 126.866 50.7586 114.141 51.5383 101.289C52.2676 89.2681 56.8741 77.8317 64.6313 68.6782C65.5219 67.6273 67.1049 67.5714 68.1149 68.5082C69.1249 69.445 69.179 71.0196 68.293 72.0744C61.3183 80.3786 57.1772 90.7224 56.5179 101.591C55.808 113.291 59.177 124.875 66.0509 134.37C72.9247 143.865 82.878 150.682 94.2149 153.661C105.552 156.64 117.571 155.596 128.224 150.706C138.877 145.817 147.506 137.385 152.639 126.847C157.772 116.309 159.093 104.317 156.376 92.9147C153.659 81.5122 147.072 71.4047 137.738 64.3142C129.067 57.7277 118.525 54.1232 107.681 53.997C106.303 53.981 105.145 52.9134 105.093 51.5368Z" fill="#EF2A82"/>
<path d="M104.107 27.9947C104.03 26.008 105.579 24.3263 107.567 24.338C123.14 24.4301 138.381 29.0497 151.413 37.6719C165.447 46.9575 176.21 60.4163 182.183 76.1485C188.156 91.8806 189.037 109.091 184.702 125.351C180.367 141.611 171.035 156.099 158.022 166.769C145.01 177.44 128.975 183.754 112.181 184.82C95.3869 185.887 78.682 181.652 64.4245 172.713C50.167 163.774 39.077 150.583 32.72 135.002C26.8172 120.534 25.2722 104.684 28.2322 89.3938C28.6101 87.4418 30.5625 86.2526 32.4956 86.7175C34.4287 87.1825 35.6096 89.1255 35.2403 91.0791C32.6278 104.901 34.0535 119.211 39.3865 132.282C45.1736 146.467 55.2695 158.475 68.249 166.613C81.2285 174.75 96.436 178.606 111.725 177.635C127.013 176.664 141.611 170.916 153.457 161.202C165.303 151.488 173.799 138.299 177.745 123.497C181.692 108.694 180.89 93.0261 175.452 78.7041C170.014 64.3822 160.216 52.1298 147.44 43.6765C135.666 35.8867 121.912 31.6857 107.847 31.5405C105.859 31.52 104.185 29.9814 104.107 27.9947Z" fill="#0088F0"/>
<path d="M99.2217 103.5L98.6999 103.366L98.9573 100.81H101.591V101.413H99.5108L99.3557 102.809C99.4497 102.755 99.5684 102.705 99.7117 102.658C99.8574 102.611 100.024 102.587 100.212 102.587C100.45 102.587 100.662 102.628 100.85 102.711C101.038 102.79 101.198 102.906 101.33 103.056C101.464 103.206 101.566 103.387 101.637 103.599C101.707 103.81 101.742 104.047 101.742 104.308C101.742 104.554 101.708 104.781 101.64 104.988C101.574 105.195 101.474 105.376 101.34 105.531C101.206 105.684 101.037 105.802 100.833 105.887C100.631 105.972 100.392 106.014 100.117 106.014C99.9103 106.014 99.7141 105.986 99.5284 105.929C99.3451 105.871 99.1806 105.782 99.0348 105.665C98.8915 105.545 98.774 105.397 98.6823 105.221C98.593 105.042 98.5366 104.833 98.5131 104.593H99.1336C99.1618 104.786 99.2182 104.948 99.3028 105.08C99.3874 105.211 99.4978 105.311 99.6342 105.379C99.7728 105.445 99.9338 105.478 100.117 105.478C100.272 105.478 100.41 105.451 100.53 105.397C100.649 105.343 100.751 105.265 100.833 105.164C100.915 105.063 100.977 104.941 101.02 104.798C101.064 104.654 101.087 104.493 101.087 104.315C101.087 104.152 101.064 104.002 101.02 103.863C100.975 103.725 100.908 103.604 100.819 103.5C100.732 103.397 100.625 103.317 100.498 103.261C100.371 103.202 100.225 103.172 100.061 103.172C99.8422 103.172 99.6765 103.202 99.5637 103.261C99.4532 103.319 99.3392 103.399 99.2217 103.5ZM103.283 103.5L102.761 103.366L103.019 100.81H105.652V101.413H103.572L103.417 102.809C103.511 102.755 103.63 102.705 103.773 102.658C103.919 102.611 104.086 102.587 104.274 102.587C104.511 102.587 104.724 102.628 104.912 102.711C105.1 102.79 105.26 102.906 105.391 103.056C105.525 103.206 105.627 103.387 105.698 103.599C105.768 103.81 105.804 104.047 105.804 104.308C105.804 104.554 105.77 104.781 105.701 104.988C105.636 105.195 105.536 105.376 105.402 105.531C105.268 105.684 105.099 105.802 104.894 105.887C104.692 105.972 104.453 106.014 104.178 106.014C103.972 106.014 103.775 105.986 103.59 105.929C103.406 105.871 103.242 105.782 103.096 105.665C102.953 105.545 102.835 105.397 102.744 105.221C102.654 105.042 102.598 104.833 102.574 104.593H103.195C103.223 104.786 103.279 104.948 103.364 105.08C103.449 105.211 103.559 105.311 103.695 105.379C103.834 105.445 103.995 105.478 104.178 105.478C104.334 105.478 104.471 105.451 104.591 105.397C104.711 105.343 104.812 105.265 104.894 105.164C104.976 105.063 105.039 104.941 105.081 104.798C105.126 104.654 105.148 104.493 105.148 104.315C105.148 104.152 105.126 104.002 105.081 103.863C105.036 103.725 104.969 103.604 104.88 103.5C104.793 103.397 104.686 103.317 104.559 103.261C104.432 103.202 104.286 103.172 104.122 103.172C103.903 103.172 103.738 103.202 103.625 103.261C103.514 103.319 103.4 103.399 103.283 103.5ZM107.947 103.493V104.029H106.227V103.493H107.947ZM111.018 100.803H111.074V101.357H111.018C110.672 101.357 110.383 101.413 110.15 101.526C109.918 101.637 109.733 101.786 109.597 101.974C109.461 102.159 109.362 102.369 109.301 102.601C109.242 102.834 109.213 103.07 109.213 103.31V104.064C109.213 104.292 109.24 104.494 109.294 104.671C109.348 104.845 109.422 104.992 109.516 105.111C109.61 105.231 109.716 105.322 109.833 105.383C109.953 105.444 110.078 105.474 110.207 105.474C110.357 105.474 110.491 105.446 110.609 105.39C110.726 105.331 110.825 105.25 110.905 105.147C110.987 105.041 111.049 104.916 111.092 104.773C111.134 104.63 111.155 104.472 111.155 104.301C111.155 104.148 111.136 104.001 111.099 103.86C111.061 103.716 111.004 103.59 110.926 103.479C110.848 103.366 110.751 103.278 110.633 103.215C110.518 103.149 110.381 103.116 110.221 103.116C110.04 103.116 109.871 103.161 109.713 103.25C109.558 103.337 109.43 103.452 109.329 103.595C109.23 103.736 109.174 103.89 109.16 104.057L108.814 104.054C108.847 103.791 108.908 103.566 108.998 103.38C109.089 103.192 109.202 103.04 109.336 102.922C109.472 102.802 109.624 102.715 109.791 102.661C109.96 102.605 110.139 102.577 110.327 102.577C110.583 102.577 110.804 102.625 110.989 102.721C111.175 102.818 111.328 102.947 111.448 103.109C111.568 103.269 111.656 103.45 111.712 103.652C111.771 103.852 111.8 104.057 111.8 104.269C111.8 104.511 111.766 104.738 111.698 104.949C111.63 105.161 111.528 105.346 111.391 105.506C111.257 105.666 111.092 105.791 110.894 105.88C110.697 105.969 110.468 106.014 110.207 106.014C109.929 106.014 109.687 105.957 109.481 105.845C109.274 105.729 109.102 105.577 108.966 105.386C108.83 105.196 108.727 104.984 108.659 104.752C108.591 104.519 108.557 104.283 108.557 104.043V103.736C108.557 103.375 108.593 103.02 108.666 102.672C108.739 102.324 108.865 102.009 109.043 101.727C109.224 101.445 109.475 101.221 109.794 101.054C110.114 100.887 110.522 100.803 111.018 100.803ZM116.045 104.216V104.752H112.336V104.368L114.635 100.81H115.167L114.596 101.84L113.076 104.216H116.045ZM115.329 100.81V105.943H114.677V100.81H115.329Z" fill="#8794BA"/>
<path d="M3.87195 4.63399L1.6063 10.8716H0.680295L3.28908 4.02762H3.88605L3.87195 4.63399ZM5.77096 10.8716L3.50061 4.63399L3.48651 4.02762H4.08347L6.70166 10.8716H5.77096ZM5.65345 8.338V9.08068H1.80842V8.338H5.65345ZM10.7817 5.78562H11.5714V10.7635C11.5714 11.2116 11.4805 11.5939 11.2988 11.9104C11.117 12.2269 10.8632 12.4666 10.5373 12.6296C10.2145 12.7957 9.84161 12.8787 9.41856 12.8787C9.24308 12.8787 9.03625 12.8505 8.79809 12.7941C8.56307 12.7408 8.33118 12.6484 8.10242 12.5168C7.87679 12.3883 7.6872 12.2144 7.53365 11.995L7.98961 11.4779C8.2027 11.7349 8.42519 11.9135 8.65708 12.0138C8.89211 12.1141 9.124 12.1642 9.35276 12.1642C9.62852 12.1642 9.86668 12.1125 10.0672 12.0091C10.2678 11.9057 10.4229 11.7521 10.5326 11.5485C10.6454 11.3479 10.7018 11.1003 10.7018 10.8058V6.90434L10.7817 5.78562ZM7.27983 8.38501V8.2863C7.27983 7.89772 7.32526 7.54518 7.41614 7.22868C7.51015 6.90904 7.64333 6.63485 7.81569 6.40609C7.99117 6.17733 8.2027 6.00184 8.45026 5.87963C8.69782 5.75428 8.97671 5.69161 9.28695 5.69161C9.60658 5.69161 9.88548 5.74801 10.1236 5.86083C10.3649 5.97051 10.5686 6.13189 10.7347 6.34498C10.9039 6.55494 11.0371 6.80877 11.1343 7.10646C11.2314 7.40416 11.2988 7.74104 11.3364 8.11708V8.54952C11.3019 8.92243 11.2345 9.25774 11.1343 9.55544C11.0371 9.85314 10.9039 10.107 10.7347 10.3169C10.5686 10.5269 10.3649 10.6883 10.1236 10.8011C9.88235 10.9108 9.60032 10.9656 9.27755 10.9656C8.97358 10.9656 8.69782 10.9014 8.45026 10.7729C8.20583 10.6444 7.99587 10.4642 7.82039 10.2323C7.6449 10.0004 7.51015 9.72779 7.41614 9.41442C7.32526 9.09792 7.27983 8.75478 7.27983 8.38501ZM8.14942 8.2863V8.38501C8.14942 8.63883 8.17449 8.87699 8.22463 9.09949C8.2779 9.32198 8.35781 9.51783 8.46436 9.68705C8.57404 9.85627 8.71349 9.98945 8.8827 10.0866C9.05192 10.1806 9.25405 10.2276 9.48907 10.2276C9.77737 10.2276 10.0155 10.1665 10.2036 10.0443C10.3916 9.92208 10.5404 9.76069 10.6501 9.56014C10.7629 9.35958 10.8507 9.14179 10.9133 8.90676V7.77394C10.8789 7.60159 10.8256 7.4355 10.7535 7.27568C10.6846 7.11273 10.5937 6.96858 10.4809 6.84324C10.3712 6.71475 10.2349 6.61291 10.0719 6.5377C9.90898 6.46249 9.71783 6.42489 9.49847 6.42489C9.26031 6.42489 9.05506 6.47503 8.8827 6.57531C8.71349 6.67245 8.57404 6.8072 8.46436 6.97955C8.35781 7.14877 8.2779 7.34619 8.22463 7.57182C8.17449 7.79431 8.14942 8.03247 8.14942 8.2863ZM15.0028 10.9656C14.6487 10.9656 14.3275 10.9061 14.0392 10.787C13.754 10.6648 13.508 10.494 13.3012 10.2746C13.0975 10.0553 12.9408 9.79516 12.8311 9.49433C12.7215 9.1935 12.6666 8.86446 12.6666 8.50722V8.3098C12.6666 7.89615 12.7277 7.52794 12.8499 7.20518C12.9722 6.87927 13.1382 6.60351 13.3482 6.37788C13.5582 6.15226 13.7963 5.98147 14.0627 5.86553C14.329 5.74958 14.6048 5.69161 14.89 5.69161C15.2535 5.69161 15.5668 5.75428 15.8301 5.87963C16.0964 6.00498 16.3142 6.18046 16.4834 6.40609C16.6527 6.62858 16.778 6.89181 16.8595 7.19577C16.941 7.49661 16.9817 7.82564 16.9817 8.18288V8.57303H13.1837V7.86325H16.1121V7.79744C16.0996 7.57182 16.0526 7.35246 15.9711 7.13937C15.8927 6.92628 15.7674 6.75079 15.595 6.61291C15.4227 6.47503 15.1877 6.40609 14.89 6.40609C14.6925 6.40609 14.5108 6.44839 14.3447 6.533C14.1786 6.61448 14.036 6.73669 13.917 6.89964C13.7979 7.06259 13.7054 7.26158 13.6396 7.49661C13.5738 7.73163 13.5409 8.0027 13.5409 8.3098V8.50722C13.5409 8.74851 13.5738 8.97571 13.6396 9.1888C13.7086 9.39875 13.8073 9.58364 13.9358 9.74346C14.0674 9.90327 14.2256 10.0286 14.4105 10.1195C14.5985 10.2104 14.8116 10.2558 15.0498 10.2558C15.3569 10.2558 15.617 10.1931 15.8301 10.0678C16.0432 9.94245 16.2296 9.77479 16.3894 9.56484L16.9159 9.98318C16.8062 10.1493 16.6668 10.3075 16.4975 10.4579C16.3283 10.6084 16.1199 10.7306 15.8724 10.8246C15.628 10.9186 15.3381 10.9656 15.0028 10.9656ZM20.9583 9.52253C20.9583 9.39719 20.9301 9.28124 20.8737 9.17469C20.8205 9.06502 20.7092 8.9663 20.54 8.87856C20.3739 8.78768 20.1232 8.70934 19.7879 8.64354C19.5059 8.584 19.2505 8.51349 19.0217 8.43201C18.7961 8.35054 18.6034 8.25182 18.4436 8.13588C18.2869 8.01993 18.1662 7.88362 18.0816 7.72693C17.997 7.57025 17.9547 7.38693 17.9547 7.17697C17.9547 6.97642 17.9986 6.78683 18.0863 6.60821C18.1772 6.42959 18.3041 6.27134 18.4671 6.13346C18.6332 5.99557 18.8321 5.88746 19.064 5.80912C19.2959 5.73078 19.5545 5.69161 19.8396 5.69161C20.247 5.69161 20.5948 5.76368 20.8831 5.90783C21.1714 6.05198 21.3924 6.2447 21.5459 6.486C21.6995 6.72416 21.7762 6.98895 21.7762 7.28038H20.9066C20.9066 7.13937 20.8643 7.00305 20.7797 6.87144C20.6982 6.73669 20.5776 6.62544 20.4178 6.5377C20.2611 6.44996 20.0684 6.40609 19.8396 6.40609C19.5983 6.40609 19.4025 6.44369 19.2521 6.5189C19.1048 6.59097 18.9967 6.68342 18.9277 6.79623C18.8619 6.90904 18.829 7.02812 18.829 7.15347C18.829 7.24748 18.8447 7.33209 18.876 7.4073C18.9105 7.47937 18.97 7.54675 19.0546 7.60942C19.1392 7.66896 19.2583 7.72537 19.4119 7.77864C19.5654 7.83191 19.7613 7.88518 19.9994 7.93846C20.4162 8.03247 20.7594 8.14528 21.0288 8.27689C21.2983 8.40851 21.4989 8.56989 21.6305 8.76105C21.7621 8.9522 21.8279 9.18409 21.8279 9.45673C21.8279 9.67922 21.7809 9.88291 21.6869 10.0678C21.596 10.2527 21.4629 10.4125 21.2874 10.5472C21.115 10.6789 20.9082 10.7823 20.6669 10.8575C20.4287 10.9296 20.1608 10.9656 19.8631 10.9656C19.415 10.9656 19.0358 10.8857 18.7256 10.7259C18.4154 10.566 18.1803 10.3592 18.0205 10.1054C17.8607 9.85157 17.7808 9.58364 17.7808 9.30161H18.6551C18.6676 9.53977 18.7366 9.72936 18.8619 9.87037C18.9873 10.0083 19.1408 10.107 19.3226 10.1665C19.5043 10.2229 19.6845 10.2511 19.8631 10.2511C20.1013 10.2511 20.3003 10.2198 20.4601 10.1571C20.623 10.0944 20.7468 10.0083 20.8314 9.89857C20.916 9.7889 20.9583 9.66355 20.9583 9.52253Z" fill="#8794BA"/>
</svg>
